<svg width="147" height="86" viewBox="0 0 147 86" fill="none" xmlns="http://www.w3.org/2000/svg">
  <path opacity="0.47" d="M22.5262 -2.51585C18.5119 -5.20631 13.0882 -4.13867 10.4405 -0.12432C7.75001 3.89003 6.98131 12.0896 10.9957 14.78C15.01 17.4705 19.4087 11.3208 23.6793 9.10014C29.6154 6.02532 26.5406 0.174622 22.5262 -2.51585Z" fill="#76AAD7"/>
  <path opacity="0.47" d="M144.738 94.8752C146.794 91.6173 147.284 87.6101 146.86 83.7984C146.435 80.0192 145.26 76.0446 143.661 72.5912C142.127 69.3334 139.907 66.4338 139.255 62.785C138.406 57.9959 140.625 53.3697 141.115 48.6784C142.127 39.2957 135.795 31.0532 127.929 26.5899C121.531 22.9736 114.057 21.6053 106.68 21.7031C100.054 21.8008 93.4613 22.9736 87.064 24.5374C80.8951 26.0686 74.8568 28.0559 68.3615 27.4369C62.976 26.9157 58.1127 24.6677 53.1189 23.0062C41.1402 19.0316 26.6483 18.4778 15.6814 24.5374C8.6639 28.4143 3.73534 34.7346 1.54849 41.511C-0.0508447 46.463 -0.507798 52.1969 0.634584 57.214C1.94016 62.8502 4.38813 67.8347 3.73534 73.7967C3.2131 78.6835 2.03808 83.44 1.58113 88.392C1.15682 93.1811 3.57214 100.967 13.2661 100.348C13.5272 100.316 15.8772 100.805 16.0404 101H136.741C139.548 99.4688 143.073 97.5141 144.738 94.8752Z" fill="#599AD2"/>
  <path opacity="0.81" d="M127.847 91.9133C128.303 88.2936 127.227 84.9348 127.357 81.413C127.618 74.6628 133.847 69.9669 135.999 63.9015C138.738 56.2056 138.608 47.564 135.282 40.0638C133.684 36.4441 131.336 33.0853 128.14 30.77C123.216 27.1829 116.727 26.4003 110.661 26.8568C101.596 27.5416 92.041 31.2917 82.9429 30.2808C77.9209 29.7265 76.3883 24.4763 73.7795 21.0523C70.8446 17.1391 66.8336 14.1064 62.4313 12.052C54.2789 8.30184 44.5285 7.94314 36.213 11.3346C27.3432 14.9542 19.582 23.8241 20.1038 33.8679C20.3321 38.4985 22.2887 43.1291 21.3756 47.6945C20.2669 53.4338 15.7667 58.6187 12.5057 63.2819C8.91865 68.4343 6.7338 74.5649 6.30987 80.826C5.82072 87.9349 9.21214 95.1743 12.9297 101.24H124.716C126.346 98.4027 127.423 95.2069 127.847 91.9133Z" fill="#71A7D5"/>
  <path d="M97.7114 58.1595C97.4721 53.2942 94.84 49.1068 91.0115 46.6741C90.2937 46.1955 90.0544 45.2783 90.4931 44.5205C91.6895 42.4468 92.3276 39.9343 92.1681 37.3421C91.849 32.5964 89.0175 28.6881 85.0694 26.9334C86.3057 26.5745 87.1033 26.2953 87.1033 26.2953C87.1033 26.2953 84.2319 10.9414 68.9977 12.0581C58.0307 12.8557 53.2849 18.2395 51.3707 23.7031C51.251 24.0221 51.0516 24.3013 50.7326 24.4608C48.2201 25.737 46.6249 28.2893 46.5053 31.0809C46.4654 31.719 46.0666 32.3172 45.4684 32.5166C38.2102 35.1886 34.1026 43.045 36.1763 50.6222C36.3358 51.1406 36.1364 51.699 35.7376 52.018C29.8354 56.8834 26.4057 64.5803 27.3628 72.8354C28.7586 84.8793 39.3269 93.9719 51.4504 93.5731C60.3836 93.294 67.9209 88.0697 71.6697 80.6918C73.903 76.2651 78.4493 73.4337 83.3944 73.3539C83.4742 73.3539 83.554 73.3539 83.5938 73.3539C91.9687 73.0747 98.1501 66.4147 97.7114 58.1595Z" fill="#4C4C53"/>
  <path d="M126.147 54.5708L125.987 54.5309C125.269 54.3714 124.511 54.8499 124.352 55.5678L124.591 54.4511C124.791 53.5738 124.232 52.7363 123.355 52.5369C122.478 52.3375 121.64 52.8958 121.441 53.7731L121.72 52.4571C121.919 51.5797 121.361 50.7423 120.484 50.5429C119.606 50.3435 118.769 50.9018 118.569 51.7791L118.41 52.5369C118.609 51.6595 118.051 50.822 117.173 50.6226C116.296 50.4232 115.459 50.9815 115.259 51.8589L112.787 63.0652C112.428 62.7462 112.188 62.3075 112.109 61.8289C111.949 60.6724 111.55 59.157 110.474 58.9975C108.32 58.6784 106.924 62.3075 107.323 68.5288C107.722 74.8299 109.078 75.0692 109.078 75.0692L103.893 92.2575L103.814 92.5367L99.3072 82.8458L88.5396 89.9046L98.6691 114.75C98.8685 115.508 99.1875 116.265 99.5863 116.943V116.983C99.9453 117.621 100.384 118.259 100.942 118.818C101.221 119.137 101.54 119.416 101.899 119.695C105.808 122.885 110.673 121.011 113.863 117.741C117.732 113.753 118.21 108.927 118.769 103.623C119.207 99.2764 120.723 85.0392 121.002 82.2476L121.481 77.9804C121.481 77.9804 125.668 74.0722 125.03 66.0562L127.223 56.166C127.343 55.4481 126.904 54.7303 126.147 54.5708Z" fill="#F9D9EB"/>
  <path d="M117.014 59.2368H116.974C116.855 59.197 116.815 59.1172 116.815 58.9976L118.291 52.4173C118.33 52.2977 118.41 52.2578 118.53 52.2578C118.649 52.2977 118.689 52.3774 118.689 52.4971L117.214 59.0773C117.174 59.1571 117.094 59.2368 117.014 59.2368Z" fill="#F7A9B4"/>
  <path d="M120.085 60.3135H120.045C119.925 60.2736 119.885 60.1939 119.885 60.0742L121.361 53.494C121.401 53.3744 121.48 53.3345 121.6 53.3345C121.72 53.3744 121.76 53.4541 121.76 53.5738L120.284 60.154C120.244 60.2736 120.164 60.3135 120.085 60.3135Z" fill="#F7A9B4"/>
  <path d="M122.996 62.0283H122.956C122.837 61.9885 122.797 61.9087 122.797 61.7891L124.272 55.2088C124.312 55.0892 124.392 55.0493 124.512 55.0493C124.631 55.0892 124.671 55.169 124.671 55.2886L123.196 61.8688C123.156 61.9885 123.076 62.0283 122.996 62.0283Z" fill="#F7A9B4"/>
  <path d="M114.98 69.4464C114.941 69.4464 114.941 69.4464 114.901 69.4464C114.781 69.4066 114.741 69.2869 114.781 69.2072C116.177 64.9001 112.627 63.1853 112.468 63.1055C112.348 63.0656 112.308 62.946 112.388 62.8263C112.428 62.7067 112.548 62.6668 112.667 62.7466C112.707 62.7466 116.695 64.7007 115.18 69.3268C115.14 69.3667 115.06 69.4464 114.98 69.4464Z" fill="#F7A9B4"/>
  <path d="M84.6305 74.4314C84.5907 74.2718 84.5508 74.1522 84.5508 73.9927C84.5508 74.1522 84.5907 74.3117 84.6305 74.4314Z" fill="#F9D9EB"/>
  <path d="M84.4307 73.6335C84.3908 73.474 84.3509 73.3543 84.311 73.1948C84.3509 73.3543 84.3908 73.5139 84.4307 73.6335Z" fill="#F9D9EB"/>
  <path d="M84.271 72.8762C84.2311 72.7167 84.1912 72.597 84.1514 72.4375C84.1912 72.597 84.2311 72.7167 84.271 72.8762Z" fill="#F9D9EB"/>
  <path d="M84.0724 72.1176C84.0326 71.9979 83.9927 71.8384 83.9927 71.7188C84.0326 71.8384 84.0724 71.9979 84.0724 72.1176Z" fill="#F9D9EB"/>
  <path d="M84.79 75.2688C84.7502 75.1092 84.7103 74.9896 84.6704 74.8301C84.7502 74.9896 84.79 75.1092 84.79 75.2688Z" fill="#F9D9EB"/>
  <path d="M83.9133 71.4003C83.8734 71.2806 83.8734 71.1211 83.8335 71.0015C83.8734 71.161 83.9133 71.2806 83.9133 71.4003Z" fill="#F9D9EB"/>
  <path d="M85.6265 78.6988C85.5866 78.5393 85.5467 78.3797 85.5068 78.2202C85.5467 78.3399 85.5866 78.5393 85.6265 78.6988Z" fill="#F9D9EB"/>
  <path d="M85.8662 79.5762C85.8263 79.4167 85.7865 79.2572 85.7466 79.0977C85.7865 79.2572 85.8263 79.4167 85.8662 79.5762Z" fill="#F9D9EB"/>
  <path d="M85.4282 77.8205C85.3883 77.661 85.3485 77.5414 85.3086 77.3818C85.3485 77.5015 85.3883 77.661 85.4282 77.8205Z" fill="#F9D9EB"/>
  <path d="M85.2285 76.9436C85.1886 76.784 85.1488 76.6644 85.1089 76.5049C85.1488 76.6245 85.1886 76.784 85.2285 76.9436Z" fill="#F9D9EB"/>
  <path d="M84.9893 76.1065C84.9494 75.947 84.9095 75.7875 84.8696 75.6279C84.9494 75.7875 84.9893 75.947 84.9893 76.1065Z" fill="#F9D9EB"/>
  <path d="M83.5138 69.4069C83.474 69.2873 83.474 69.2075 83.4341 69.0879C83.4341 69.1677 83.474 69.2873 83.5138 69.4069Z" fill="#F9D9EB"/>
  <path d="M82.9144 66.2559C82.9144 66.1761 82.8745 66.0964 82.8745 66.0166C82.9144 66.0565 82.9144 66.1362 82.9144 66.2559Z" fill="#F9D9EB"/>
  <path d="M82.9949 66.6538C82.9949 66.5741 82.9551 66.4943 82.9551 66.4146C82.9551 66.4943 82.9949 66.5741 82.9949 66.6538Z" fill="#F9D9EB"/>
  <path d="M82.8763 65.8575C82.8763 65.7378 82.8364 65.6182 82.8364 65.4985C82.8763 65.6182 82.8763 65.7378 82.8763 65.8575Z" fill="#F9D9EB"/>
  <path d="M83.075 67.1332C83.075 67.0534 83.0352 66.9736 83.0352 66.854C83.0352 66.9736 83.075 67.0534 83.075 67.1332Z" fill="#F9D9EB"/>
  <path d="M83.2743 68.2102C83.2743 68.0905 83.2344 68.0108 83.2344 67.8911C83.2344 68.0108 83.2344 68.0905 83.2743 68.2102Z" fill="#F9D9EB"/>
  <path d="M86.1055 80.493C86.0656 80.3335 86.0257 80.174 85.9858 79.9746C85.9858 80.1341 86.0257 80.2936 86.1055 80.493Z" fill="#F9D9EB"/>
  <path d="M83.6335 70.0445C83.5936 69.9248 83.5936 69.8052 83.5537 69.6855C83.5936 69.8052 83.5936 69.9248 83.6335 70.0445Z" fill="#F9D9EB"/>
  <path d="M83.7531 70.7225C83.7132 70.6029 83.7132 70.4833 83.6733 70.3237C83.7132 70.4434 83.7531 70.563 83.7531 70.7225Z" fill="#F9D9EB"/>
  <path d="M83.1546 67.6522C83.1546 67.5724 83.1147 67.4927 83.1147 67.373C83.1147 67.4927 83.1546 67.5724 83.1546 67.6522Z" fill="#F9D9EB"/>
  <path d="M83.3542 68.7683C83.3143 68.6486 83.3143 68.529 83.2744 68.4492C83.3143 68.5689 83.3542 68.6486 83.3542 68.7683Z" fill="#F9D9EB"/>
  <path d="M87.023 84.162C86.9831 84.0025 86.9432 83.8031 86.9033 83.6436C86.9432 83.843 86.9831 84.0025 87.023 84.162Z" fill="#F9D9EB"/>
  <path d="M86.784 83.2448C86.7441 83.0454 86.7043 82.8859 86.6245 82.6865C86.7043 82.8859 86.7441 83.0853 86.784 83.2448Z" fill="#F9D9EB"/>
  <path d="M86.544 82.3272C86.5041 82.1677 86.4642 82.0082 86.4243 81.8486C86.4642 81.9683 86.5041 82.1677 86.544 82.3272Z" fill="#F9D9EB"/>
  <path d="M87.5015 86.0761C87.4616 85.9165 87.4217 85.757 87.3818 85.5576C87.4217 85.7171 87.4616 85.8767 87.5015 86.0761Z" fill="#F9D9EB"/>
  <path d="M87.2622 85.0793C87.2223 84.9198 87.1825 84.8001 87.1426 84.6406C87.1825 84.8001 87.2223 84.9597 87.2622 85.0793Z" fill="#F9D9EB"/>
  <path d="M86.3057 81.3707C86.2658 81.2111 86.2259 81.0516 86.186 80.8921C86.2259 81.0915 86.2658 81.2111 86.3057 81.3707Z" fill="#F9D9EB"/>
  <path d="M99.3468 82.8065C89.8952 66.4557 82.8364 65.4985 82.8364 65.4985C82.8364 65.6182 82.8763 65.7378 82.8763 65.8575C82.8763 65.8973 82.8763 65.9372 82.8763 66.017C82.8763 66.0967 82.8763 66.1765 82.9162 66.2563C82.9162 66.336 82.9162 66.3759 82.9561 66.4557C82.9561 66.5354 82.9959 66.6152 82.9959 66.6949C82.9959 66.7747 83.0358 66.8146 83.0358 66.8943C83.0358 66.9741 83.0757 67.0539 83.0757 67.1735C83.0757 67.2533 83.1156 67.333 83.1156 67.4128C83.1156 67.4925 83.1555 67.5723 83.1555 67.6919C83.1555 67.7717 83.1953 67.8515 83.1953 67.9312C83.1953 68.011 83.2352 68.1306 83.2352 68.2503C83.2352 68.33 83.2751 68.4098 83.2751 68.4895C83.315 68.6092 83.315 68.6889 83.3549 68.8086C83.3549 68.8884 83.3947 69.008 83.3947 69.0877C83.4346 69.2074 83.4346 69.2872 83.4745 69.4068C83.5144 69.4866 83.5144 69.6062 83.5543 69.7258C83.5942 69.8455 83.5941 69.9651 83.634 70.0848C83.634 70.1645 83.6739 70.2842 83.7138 70.3639C83.7537 70.4836 83.7537 70.6032 83.7935 70.7627C83.8334 70.8824 83.8334 70.9621 83.8733 71.0818C83.9132 71.2014 83.9132 71.321 83.9531 71.4806C83.993 71.6002 83.993 71.68 84.0328 71.7996C84.0727 71.9192 84.1126 72.0788 84.1126 72.1984C84.1525 72.318 84.1525 72.3978 84.1923 72.5174C84.2322 72.677 84.2721 72.7966 84.312 72.9561C84.3519 73.0758 84.3519 73.1954 84.3917 73.2752C84.4316 73.4347 84.4715 73.5543 84.5114 73.7138C84.5513 73.8335 84.5513 73.9531 84.5912 74.0728C84.631 74.2323 84.6709 74.3519 84.6709 74.5114C84.7108 74.6311 84.7507 74.7906 84.7507 74.9102C84.7906 75.0698 84.8304 75.1894 84.8703 75.3489C84.9102 75.4686 84.9102 75.5882 84.9501 75.7079C84.99 75.8674 85.0298 76.0269 85.0697 76.1864C85.1096 76.3061 85.1495 76.4656 85.1495 76.5852C85.1894 76.7447 85.2292 76.8644 85.2691 77.0239C85.309 77.1834 85.3489 77.3031 85.3888 77.4626C85.4286 77.6221 85.4685 77.7417 85.5084 77.9013C85.5483 78.0209 85.5882 78.1804 85.5882 78.3001C85.628 78.4596 85.6679 78.6191 85.7078 78.7786C85.7477 78.8983 85.7876 79.0578 85.7876 79.1774C85.8274 79.337 85.8673 79.4965 85.9072 79.656C85.9471 79.7756 85.987 79.9352 86.0268 80.0548C86.0667 80.2143 86.1066 80.3738 86.1465 80.5732C86.1864 80.7328 86.2262 80.8524 86.2661 81.0119C86.306 81.1714 86.3459 81.331 86.3858 81.4905C86.4256 81.65 86.4655 81.7696 86.5054 81.9292C86.5453 82.0887 86.5852 82.2482 86.625 82.4077C86.6649 82.5274 86.7048 82.647 86.7048 82.8065C86.7447 83.0059 86.7846 83.1654 86.8643 83.3648C86.9042 83.4845 86.9441 83.644 86.984 83.7637C87.0238 83.9232 87.0637 84.1226 87.1036 84.2821C87.1435 84.4416 87.1834 84.6011 87.2232 84.7607C87.2631 84.9202 87.303 85.0398 87.3429 85.1993C87.3828 85.3589 87.4226 85.5184 87.4625 85.6779C87.5024 85.8374 87.5423 85.9969 87.5822 86.1963C87.622 86.316 87.6619 86.4755 87.7018 86.5951C87.7417 86.7945 87.7816 86.9541 87.8613 87.1535C87.9012 87.2731 87.9411 87.4326 87.981 87.5523C88.0208 87.7517 88.0607 87.9112 88.1405 88.1106C88.1804 88.2302 88.2203 88.3499 88.2601 88.5094C88.3 88.7088 88.3399 88.8683 88.4196 89.0677C88.4595 89.2272 88.4994 89.3868 88.5393 89.5064C88.5792 89.6659 88.6191 89.7856 88.6589 89.9451C88.6589 89.985 88.6988 90.0248 88.6988 90.0647C89.3768 93.2152 99.3468 82.8065 99.3468 82.8065Z" fill="#61A063"/>
  <path d="M95.3595 95.6873L89.1781 78.7781C89.0983 67.0533 83.4752 63.4242 72.8272 63.5439L49.6568 63.7433C45.7486 63.7831 42.279 65.817 40.0856 69.0074C39.7267 69.5259 39.4076 70.0443 39.1285 70.6027L23.5752 96.6843L24.0139 96.8438L37.7725 101.709L38.0517 138H89.5769L91.2917 111.719L94.1631 107.173C96.3166 103.783 96.7553 99.4759 95.3595 95.6873Z" fill="#53BC57"/>
  <path d="M84.0334 29.0865C83.9935 28.4484 83.8739 27.8502 83.7542 27.2919C79.2877 28.4883 71.7503 29.8442 69.4373 26.5342C67.523 27.8103 66.4462 30.602 65.848 33.4335C65.7683 33.8721 65.6088 34.2709 65.4492 34.7096C63.8142 38.7774 58.869 40.2928 55.0804 38.0994L54.8012 35.6667L54.4822 35.7066C51.4513 35.9858 49.1781 38.7375 49.4972 41.7684C49.7763 44.7993 52.5281 47.0725 55.559 46.7534L55.9179 46.7135C56.0774 47.9897 56.4363 49.1861 56.9149 50.3426C56.875 50.7016 56.8351 51.0605 56.8351 51.4593V65.0185C56.8351 69.3655 60.3845 72.9547 64.7713 72.9547C69.1182 72.9547 72.7074 69.4054 72.7074 65.0185V58.9169C77.0145 58.1592 80.6037 55.4872 82.6775 51.898C84.6316 49.1861 85.6685 45.7564 85.3494 42.1672L84.0334 29.0865Z" fill="#F9D9EB"/>
  <path opacity="0.32" d="M72.4682 57.6808C65.0904 58.3987 58.4703 53.3339 57.1143 46.1953C57.1143 46.1156 55.8781 46.634 55.9179 46.7138C56.237 48.9471 57.0346 50.9809 58.1911 52.7357C58.1114 53.1744 58.1113 53.5732 58.1113 54.0118C58.231 58.3588 61.8601 61.8682 66.207 61.7486C68.5201 61.7087 70.5938 60.6319 72.0295 58.9969C76.6157 58.3987 80.4442 55.6469 82.6376 51.8982C80.3246 55.0487 76.6955 57.282 72.4682 57.6808Z" fill="#EF92C7"/>
  <path d="M53.2869 42.8053C53.2071 42.8053 53.1673 42.7655 53.1274 42.7256C53.0875 42.6458 53.0875 42.5262 53.2071 42.4464L55.1214 41.2101L53.0476 38.8971C52.9679 38.8173 52.9679 38.6977 53.0476 38.6179C53.1274 38.5382 53.247 38.5382 53.3268 38.6179L55.5202 41.0905C55.5601 41.1304 55.5601 41.2101 55.5601 41.25C55.5601 41.2899 55.5202 41.3697 55.4803 41.4095L53.4065 42.7655C53.3667 42.8053 53.3268 42.8053 53.2869 42.8053Z" fill="#F7A9B4"/>
  <path d="M73.5863 52.1375C73.5464 52.1375 73.4667 52.0977 73.4268 52.0578C73.347 51.978 73.3869 51.8584 73.4667 51.7786C73.4667 51.7786 74.7827 50.7417 76.1386 51.6191C76.2184 51.659 76.2583 51.8185 76.2184 51.8982C76.1785 51.978 76.019 52.0179 75.9392 51.978C74.8226 51.2602 73.7857 52.0976 73.7458 52.0976C73.6661 52.1375 73.6262 52.1375 73.5863 52.1375Z" fill="#F7A9B4"/>
  <path d="M75.0617 49.3058L72.6688 49.3457C70.4754 49.3855 68.641 47.6707 68.6011 45.4374V44.8392L75.939 44.6797L76.0188 48.2689C76.0188 48.8272 75.5801 49.3058 75.0617 49.3058Z" fill="white"/>
  <path d="M70.475 38.6182H70.5548C70.8738 38.5783 71.1131 38.2991 71.1131 37.9402L71.0333 37.2224C70.9935 36.9033 70.7143 36.6641 70.3554 36.6641H70.2756C69.9566 36.7039 69.7173 36.9831 69.7173 37.342L69.797 38.0599C69.8369 38.3789 70.156 38.6182 70.475 38.6182Z" fill="#4C4C53"/>
  <path d="M79.7675 38.6588H79.8472C80.1662 38.619 80.4055 38.3398 80.3657 37.9809L80.2859 37.263C80.246 36.944 79.9668 36.7047 79.6079 36.7446H79.5282C79.2091 36.7845 78.9698 37.0636 79.0097 37.4225L79.0895 38.1404C79.1294 38.4594 79.4085 38.6987 79.7675 38.6588Z" fill="#4C4C53"/>
  <path d="M75.7395 44.0023C75.5401 44.0023 75.3805 43.8827 75.3406 43.6833C75.3008 43.4839 75.4204 43.2446 75.6198 43.2047L77.215 42.8059C77.3347 42.766 77.4144 42.6464 77.3745 42.5267L75.7395 35.6674C75.6996 35.468 75.8192 35.2287 76.0186 35.1888C76.218 35.1489 76.4573 35.2686 76.4972 35.468L78.1323 42.3273C78.2519 42.8857 77.9329 43.444 77.3745 43.5636L75.7793 43.9624C75.7793 44.0023 75.7395 44.0023 75.7395 44.0023Z" fill="#F7A9B4"/>
  <path d="M70.6347 42.845C69.6377 42.845 68.6407 42.526 67.8032 41.9677C66.7265 41.2099 66.0086 40.0933 65.7694 38.7772C65.5301 37.4612 65.8092 36.1451 66.567 35.0684C67.3247 33.9916 68.4413 33.2738 69.7574 33.0345C71.0734 32.7952 72.3895 33.0744 73.4662 33.8321C74.543 34.5898 75.2608 35.7065 75.5001 37.0225C75.7394 38.3386 75.4602 39.6546 74.7025 40.7314C73.9448 41.8081 72.8281 42.526 71.5121 42.7653C71.2329 42.8051 70.9139 42.845 70.6347 42.845ZM70.6347 33.7125C70.3955 33.7125 70.1562 33.7523 69.877 33.7922C68.8002 33.9916 67.8431 34.5898 67.205 35.5071C66.567 36.4243 66.3277 37.541 66.5271 38.6177C66.7265 39.6945 67.3247 40.6516 68.2419 41.2897C69.1592 41.9278 70.2359 42.1671 71.3526 41.9677C72.4293 41.7683 73.3865 41.17 74.0246 40.2528C74.6626 39.3356 74.9019 38.2189 74.7025 37.1422C74.5031 36.0654 73.9049 35.1083 72.9877 34.4702C72.3097 33.9916 71.4722 33.7125 70.6347 33.7125Z" fill="white"/>
  <path d="M82.1601 43.0055C81.1631 43.0055 80.1661 42.6864 79.3286 42.1281C78.2519 41.3704 77.534 40.2537 77.2948 38.9377C77.0555 37.6216 77.3346 36.3056 78.0924 35.2288C78.8501 34.1521 79.9667 33.4342 81.2828 33.195C83.9547 32.7164 86.5469 34.511 87.0255 37.183C87.2648 38.499 86.9856 39.8151 86.2279 40.8918C85.4702 41.9686 84.3535 42.6864 83.0375 42.9257C82.7583 43.0055 82.4393 43.0055 82.1601 43.0055ZM82.1601 33.9128C81.9209 33.9128 81.6816 33.9527 81.4423 33.9926C80.3655 34.192 79.4084 34.7902 78.7703 35.7074C78.1322 36.6246 77.893 37.7413 78.0924 38.8181C78.2918 39.8948 78.89 40.8519 79.8072 41.49C80.7244 42.1281 81.8411 42.3674 82.9179 42.168C83.9946 41.9686 84.9517 41.3704 85.5898 40.4531C86.2279 39.5359 86.4672 38.4193 86.2678 37.3425C85.9089 35.3086 84.1541 33.9128 82.1601 33.9128Z" fill="white"/>
  <path d="M75.62 38.4586C75.4206 38.4586 75.2212 38.2991 75.2212 38.0997C75.2212 37.8604 75.3807 37.7009 75.5801 37.661L77.3747 37.5015C77.5741 37.5015 77.7735 37.661 77.8134 37.8604C77.8134 38.0997 77.6539 38.2592 77.4545 38.2991L75.62 38.4586Z" fill="white"/>
  <path d="M68.4422 32.595C68.7214 32.6349 69.0803 32.5153 69.4392 32.4355C69.7583 32.3159 70.1172 32.2361 70.4362 32.1563C70.7553 32.0766 71.0743 32.0367 71.4332 31.9569C71.7922 31.8772 72.1511 31.8373 72.3904 31.6778C72.6296 31.5182 72.6695 31.1593 72.2707 30.8403C71.9118 30.5212 71.0344 30.3218 70.0374 30.5212C69.0404 30.7605 68.4024 31.3188 68.203 31.7575C67.9637 32.2361 68.1631 32.5551 68.4422 32.595Z" fill="#4C4C53"/>
  <path d="M83.1181 31.8773C82.8389 31.9171 82.48 31.7975 82.161 31.7177C81.8419 31.5981 81.483 31.5183 81.2039 31.4386C80.8848 31.3588 80.5658 31.2791 80.2068 31.2392C79.8479 31.1594 79.489 31.1195 79.2497 30.9201C79.0104 30.7606 79.0104 30.4017 79.4092 30.1225C79.808 29.8035 80.6455 29.6041 81.6425 29.8434C82.6395 30.0826 83.2776 30.6808 83.4371 31.1195C83.5967 31.5582 83.3973 31.8374 83.1181 31.8773Z" fill="#4C4C53"/>
  <path d="M69.3588 39.0961C69.279 39.0961 69.2391 39.0562 69.1992 39.0163C69.1195 38.9365 69.1594 38.8169 69.2391 38.7371C69.279 38.6973 70.595 37.8199 71.6718 38.5377C71.7516 38.6175 71.7914 38.7371 71.7117 38.8169C71.6319 38.8967 71.5123 38.9365 71.4325 38.8568C70.595 38.2586 69.4784 39.0163 69.4784 39.0562C69.4385 39.0961 69.3986 39.0961 69.3588 39.0961Z" fill="#F7A9B4"/>
  <path d="M78.85 39.2557C78.7702 39.2557 78.7303 39.2158 78.6904 39.176C78.6107 39.0962 78.6506 38.9766 78.7303 38.8968C78.7702 38.8569 80.0863 37.9796 81.163 38.6974C81.2428 38.7772 81.2827 38.8968 81.2029 38.9766C81.1231 39.0563 81.0035 39.0962 80.9237 39.0164C80.0863 38.4182 78.9696 39.176 78.9696 39.2158C78.9297 39.2557 78.8898 39.2557 78.85 39.2557Z" fill="#F7A9B4"/>
  <path d="M116.956 -4C105.84 -4 96.8212 5.01891 96.8212 16.1352C96.8212 20.2881 98.0797 24.1474 100.261 27.3774C100.261 27.4194 100.135 28.0486 100.051 28.4681C99.6737 30.0202 98.7089 32.8727 96.3598 34.8862C94.556 36.3963 99.9254 37.6129 103.785 35.054C104.582 34.5506 105.295 33.8375 105.882 32.9985C105.882 32.9985 105.882 32.9985 105.882 32.9566C109.07 35.054 112.846 36.2705 116.915 36.2705C128.031 36.2705 137.05 27.2516 137.05 16.1352C137.05 5.01891 128.073 -4 116.956 -4Z" fill="#53BC57"/>
  <path d="M107.099 9.00049H109.238C109.658 9.00049 110.035 9.33608 110.035 9.79751V12.3564C110.035 12.9856 110.748 13.3631 111.252 12.9856C111.755 12.65 112.384 12.4822 113.097 12.4822C114.23 12.4822 115.111 12.8178 115.74 13.5309C116.369 14.2021 116.705 15.1669 116.705 16.3834V22.424C116.705 22.8435 116.369 23.221 115.908 23.221H113.769C113.349 23.221 112.972 22.8854 112.972 22.424V17.516C112.972 16.9287 112.846 16.5093 112.552 16.1737C112.3 15.88 111.923 15.7122 111.503 15.7122C111.042 15.7122 110.706 15.88 110.413 16.1737C110.119 16.4673 109.993 16.9287 109.993 17.516V22.424C109.993 22.8435 109.658 23.221 109.196 23.221H107.057C106.637 23.221 106.26 22.8854 106.26 22.424V9.79751C106.302 9.33608 106.637 9.00049 107.099 9.00049Z" fill="white"/>
  <path d="M120.019 9H121.152C121.907 9 122.536 9.62923 122.536 10.3843C122.536 11.1394 121.907 11.7686 121.152 11.7686H120.019C119.264 11.7686 118.635 11.1394 118.635 10.3843C118.635 9.58728 119.264 9 120.019 9ZM120.103 12.6915H121.11C121.865 12.6915 122.494 13.3207 122.494 14.0758V21.8782C122.494 22.6332 121.865 23.2625 121.11 23.2625H120.103C119.348 23.2625 118.719 22.6332 118.719 21.8782V14.0338C118.719 13.2787 119.348 12.6915 120.103 12.6915Z" fill="white"/>
  <path d="M124.549 11.139V10.6775C124.549 10.0483 125.053 9.54492 125.682 9.54492H127.612C128.241 9.54492 128.744 10.0483 128.744 10.6775V11.139C128.744 11.1809 128.744 11.2648 128.744 11.3068L127.779 17.8088C127.695 18.3541 127.234 18.7736 126.647 18.7736C126.101 18.7736 125.598 18.3541 125.514 17.8088L124.549 11.3068C124.549 11.2648 124.549 11.2229 124.549 11.139ZM125.85 19.9062H127.444C128.073 19.9062 128.576 20.4096 128.576 21.0388V22.0875C128.576 22.7167 128.073 23.2201 127.444 23.2201H125.85C125.22 23.2201 124.717 22.7167 124.717 22.0875V21.0388C124.717 20.4096 125.22 19.9062 125.85 19.9062Z" fill="white"/>
</svg>
