<svg width="40" height="40" viewBox="50 0 220 230">
    <path fill="#DC2632" d="M101.242 159.962L91.918 152.47C88.323 149.58 86.296 145.279 86.36 140.667C86.422 136.055 88.564 131.81 92.237 129.019C105.109 119.235 112.718 104.354 113.112 88.1899C113.506 72.0249 106.632 56.7919 94.252 46.3919C86.212 39.6399 74.221 40.6829 67.468 48.7209C60.715 56.7589 61.759 68.7509 69.797 75.5049C74.566 79.5099 75.168 84.5899 75.103 87.2629C75.038 89.9349 74.189 94.9799 69.23 98.7489C56.178 108.668 48.564 123.76 48.343 140.153C48.121 156.546 55.323 171.837 68.102 182.107L77.426 189.599C80.938 192.42 85.143 193.791 89.322 193.791C94.884 193.791 100.397 191.362 104.152 186.689C110.729 178.504 109.426 166.539 101.242 159.962Z" />
    <path fill="#DC2632" d="M180.19 169.799L169.254 161.011C164.244 156.985 161.421 150.99 161.508 144.564C161.594 138.137 164.58 132.221 169.696 128.332C183.994 117.466 192.446 100.936 192.883 82.9831C193.32 65.0301 185.686 48.1071 171.935 36.5571C163.895 29.8031 151.904 30.8461 145.153 38.8851C138.399 46.924 139.442 58.9151 147.481 65.6671C152.335 69.7441 155.03 75.7171 154.875 82.0541C154.719 88.3911 151.736 94.2251 146.691 98.0601C132.194 109.077 123.737 125.839 123.491 144.047C123.244 162.255 131.243 179.239 145.437 190.645L156.373 199.433C159.885 202.255 164.09 203.625 168.269 203.625C173.831 203.625 179.344 201.195 183.099 196.523C189.676 188.34 188.373 176.375 180.19 169.799Z" />
    <path fill="#DC2632" d="M256.161 159.962L246.837 152.47C243.242 149.58 241.215 145.279 241.279 140.667C241.341 136.055 243.483 131.81 247.156 129.019C260.03 119.235 267.639 104.354 268.033 88.1909C268.427 72.0279 261.553 56.7919 249.173 46.3919C241.133 39.6399 229.143 40.6829 222.389 48.7209C215.637 56.7599 216.68 68.7509 224.718 75.5049C229.487 79.5109 230.089 84.5919 230.024 87.2629C229.957 89.9349 229.108 94.9799 224.15 98.7489C211.098 108.668 203.484 123.76 203.263 140.153C203.041 156.546 210.243 171.837 223.022 182.107L232.346 189.599C235.858 192.42 240.063 193.791 244.242 193.791C249.804 193.791 255.317 191.362 259.072 186.689C265.648 178.504 264.345 166.539 256.161 159.962Z" />
</svg>
